# xmcd
#
# Track frame offsets:
#	150
#	21276
#	33300
#	56874
#	74499
#	97687
#	111567
#	129893
#	149313
#	170847
#	195851
#	212850
#
# Disc length: 3187 seconds
# Revision: 5
# Processed by: cddbd v1.5.2PL0 Copyright (c) Steve Scherf et al.
# Submitted via: dBpowerAMP V12.0
#
DISCID=ae0c710c
DTITLE=Toots Thielemans - One More for the Road
DYEAR=2006
DGENRE=Blues
TTITLE0=Come Rain or Come Shine
TTITLE1=Between the Devil and the Deep Blue Sea
TTITLE2=Last Night When We Were Young
TTITLE3=Ill Wind
TTITLE4=One for My Baby (And One More for the Road)
TTITLE5=I Gotta Right to Sing the Blues
TTITLE6=I Wonder What Became of Me
TTITLE7=That Old Black Magic
TTITLE8=This Time the Dream's on Me
TTITLE9=Stormy Weather
TTITLE10=It's Only a Paper Moon
TTITLE11=Over the Rainbow
EXTD=
EXTT0=
EXTT1=
EXTT2=
EXTT3=
EXTT4=
EXTT5=
EXTT6=
EXTT7=
EXTT8=
EXTT9=
EXTT10=
EXTT11=
PLAYORDER=
